<svg width="600" height="85" viewBox="0 0 600 85" fill="none" xmlns="http://www.w3.org/2000/svg">
<path d="M14.9963 31.3139H23.2763C25.9763 31.3139 28.1663 30.5939 29.8463 29.1539C31.5263 27.6539 32.3663 25.6739 32.3663 23.2139C32.3663 20.6939 31.5263 18.7139 29.8463 17.2739C28.2263 15.7739 26.0363 15.0239 23.2763 15.0239H14.9963V31.3139ZM24.7163 43.5539H14.9063V66.5039H0.686348V2.6939H24.7163C31.1963 2.6939 36.4464 4.6139 40.4664 8.4539C44.5464 12.2939 46.5863 17.1839 46.5863 23.1239C46.5863 29.1839 44.5464 34.1039 40.4664 37.8839C36.4464 41.6639 31.1963 43.5539 24.7163 43.5539ZM71.2407 55.2539C74.0607 55.2539 76.4307 54.2939 78.3507 52.3739C80.3307 50.4539 81.3207 47.6939 81.3207 44.0939C81.3207 40.4939 80.3307 37.7639 78.3507 35.9039C76.4307 33.9839 74.0607 33.0239 71.2407 33.0239C68.4807 33.0239 66.1107 33.9839 64.1307 35.9039C62.1507 37.8239 61.1607 40.5539 61.1607 44.0939C61.1607 47.6339 62.1507 50.3939 64.1307 52.3739C66.1107 54.2939 68.4807 55.2539 71.2407 55.2539ZM71.2407 20.4239C78.0207 20.4239 83.6607 22.6439 88.1607 27.0839C92.7207 31.5239 95.0007 37.1939 95.0007 44.0939C95.0007 50.9939 92.7207 56.6939 88.1607 61.1939C83.6607 65.6339 78.0207 67.8539 71.2407 67.8539C64.5207 67.8539 58.8807 65.6039 54.3207 61.1039C49.7607 56.6039 47.4807 50.9339 47.4807 44.0939C47.4807 37.2539 49.7607 31.6139 54.3207 27.1739C58.8807 22.6739 64.5207 20.4239 71.2407 20.4239ZM115.687 83.6039H102.007V21.7739H115.237V26.3639C116.257 24.8039 117.937 23.4839 120.277 22.4039C122.677 21.2639 125.377 20.6939 128.377 20.6939C134.737 20.6939 139.777 22.8839 143.497 27.2639C147.277 31.5839 149.167 37.1639 149.167 44.0039C149.167 50.8439 147.157 56.4839 143.137 60.9239C139.177 65.3039 134.077 67.4939 127.837 67.4939C122.197 67.4939 118.147 65.9939 115.687 62.9939V83.6039ZM132.787 52.3739C134.767 50.3939 135.757 47.6339 135.757 44.0939C135.757 40.5539 134.767 37.8239 132.787 35.9039C130.867 33.9839 128.467 33.0239 125.587 33.0239C122.767 33.0239 120.367 33.9839 118.387 35.9039C116.467 37.8239 115.507 40.5539 115.507 44.0939C115.507 47.6339 116.467 50.3939 118.387 52.3739C120.367 54.2939 122.767 55.2539 125.587 55.2539C128.467 55.2539 130.867 54.2939 132.787 52.3739ZM208.131 66.5039L196.701 42.7439H191.661V66.5039H177.441V2.6939H202.731C208.911 2.6939 213.891 4.5839 217.671 8.3639C221.511 12.1439 223.431 16.9139 223.431 22.6739C223.431 26.9939 222.321 30.7439 220.101 33.9239C217.881 37.0439 214.791 39.2939 210.831 40.6739L223.791 66.5039H208.131ZM191.661 30.5039H200.031C202.911 30.5039 205.131 29.8139 206.691 28.4339C208.251 26.9939 209.031 25.1039 209.031 22.7639C209.031 20.3639 208.251 18.4739 206.691 17.0939C205.131 15.7139 202.911 15.0239 200.031 15.0239H191.661V30.5039ZM244.935 66.5039H231.255V21.7739H244.935V66.5039ZM232.425 13.7639C230.865 12.2039 230.085 10.3139 230.085 8.0939C230.085 5.8739 230.865 3.9839 232.425 2.42391C233.985 0.863904 235.845 0.0839031 238.005 0.0839031C240.225 0.0839031 242.115 0.863904 243.675 2.42391C245.295 3.9839 246.105 5.8739 246.105 8.0939C246.105 10.3139 245.295 12.2039 243.675 13.7639C242.115 15.3239 240.225 16.1039 238.005 16.1039C235.845 16.1039 233.985 15.3239 232.425 13.7639ZM251.969 69.0239L264.029 65.6039C264.509 67.8239 265.589 69.6239 267.269 71.0039C269.009 72.3839 271.139 73.0739 273.659 73.0739C281.039 73.0739 284.729 69.2639 284.729 61.6439V59.5739C282.509 62.9339 278.519 64.6139 272.759 64.6139C266.819 64.6139 261.869 62.5439 257.909 58.4039C253.949 54.2639 251.969 49.0739 251.969 42.8339C251.969 36.8339 253.919 31.7039 257.819 27.4439C261.779 23.1239 266.759 20.9639 272.759 20.9639C276.059 20.9639 278.759 21.5339 280.859 22.6739C282.959 23.8139 284.399 25.1039 285.179 26.5439V21.7739H298.229V60.9239C298.229 67.8839 296.219 73.6139 292.199 78.1139C288.179 82.6739 282.209 84.9539 274.289 84.9539C268.169 84.9539 263.069 83.3639 258.989 80.1839C254.969 77.0639 252.629 73.3439 251.969 69.0239ZM268.349 50.0339C270.149 51.8339 272.459 52.7339 275.279 52.7339C278.099 52.7339 280.379 51.8339 282.119 50.0339C283.919 48.2339 284.819 45.8339 284.819 42.8339C284.819 39.8939 283.889 37.5239 282.029 35.7239C280.169 33.8639 277.919 32.9339 275.279 32.9339C272.639 32.9339 270.359 33.8639 268.439 35.7239C266.579 37.5239 265.649 39.8939 265.649 42.8339C265.649 45.8339 266.549 48.2339 268.349 50.0339ZM321.667 40.2239V66.5039H307.987V1.3439H321.667V24.6539C324.367 21.9539 328.177 20.6039 333.097 20.6039C338.677 20.6039 342.877 22.2839 345.697 25.6439C348.577 28.9439 350.017 33.2039 350.017 38.4239V66.5039H336.337V40.7639C336.337 38.4239 335.707 36.5639 334.447 35.1839C333.247 33.7439 331.447 33.0239 329.047 33.0239C326.947 33.0239 325.207 33.7139 323.827 35.0939C322.507 36.4139 321.787 38.1239 321.667 40.2239ZM376.093 8.7239V21.7739H384.823V33.7439H376.093V50.4839C376.093 53.6039 377.743 55.1639 381.043 55.1639C382.123 55.1639 383.323 55.0139 384.643 54.7139V66.0539C382.963 66.8939 380.593 67.3139 377.533 67.3139C372.913 67.3139 369.253 66.0239 366.553 63.4439C363.913 60.8639 362.593 57.3539 362.593 52.9139V33.7439H354.673V21.7739H356.923C359.203 21.7739 360.913 21.1139 362.053 19.7939C363.253 18.4139 363.853 16.6439 363.853 14.4839V8.7239H376.093ZM468.966 66.5039H453.936L427.656 24.5639V66.5039H413.526V2.6939H430.806L454.746 41.4839V2.6939H468.966V66.5039ZM500.077 55.2539C502.897 55.2539 505.267 54.2939 507.187 52.3739C509.167 50.4539 510.157 47.6939 510.157 44.0939C510.157 40.4939 509.167 37.7639 507.187 35.9039C505.267 33.9839 502.897 33.0239 500.077 33.0239C497.317 33.0239 494.947 33.9839 492.967 35.9039C490.987 37.8239 489.997 40.5539 489.997 44.0939C489.997 47.6339 490.987 50.3939 492.967 52.3739C494.947 54.2939 497.317 55.2539 500.077 55.2539ZM500.077 20.4239C506.857 20.4239 512.497 22.6439 516.997 27.0839C521.557 31.5239 523.837 37.1939 523.837 44.0939C523.837 50.9939 521.557 56.6939 516.997 61.1939C512.497 65.6339 506.857 67.8539 500.077 67.8539C493.357 67.8539 487.717 65.6039 483.157 61.1039C478.597 56.6039 476.317 50.9339 476.317 44.0939C476.317 37.2539 478.597 31.6139 483.157 27.1739C487.717 22.6739 493.357 20.4239 500.077 20.4239ZM554.994 21.7739H569.484L578.214 48.3239L585.684 21.7739H599.094L585.234 66.5039H571.644L561.924 37.6139L552.384 66.5039H538.524L524.484 21.7739H538.704L546.174 48.2339L554.994 21.7739Z" fill="white"/>
</svg>
